<svg width="350" height="75" viewBox="0 0 350 75" fill="none" xmlns="http://www.w3.org/2000/svg">
<path d="M56.0476 33.4272C55.1001 34.3804 54.3746 35.5309 53.9226 36.7964C53.4706 38.0622 53.3034 39.4119 53.4326 40.7497L53.3876 40.7047C53.5206 42.2794 53.3081 43.8639 52.7654 45.3482C52.2226 46.8322 51.3626 48.1799 50.2454 49.2974C49.1279 50.4147 47.7801 51.2749 46.2959 51.8174C44.8119 52.3602 43.2271 52.5727 41.6526 52.4397L41.6976 52.4847C39.8141 52.3094 37.9224 52.7192 36.2801 53.6584C34.6381 54.5977 33.3256 56.0204 32.5219 57.7329C31.7181 59.4454 31.4619 61.3639 31.7884 63.2274C32.1151 65.0907 33.0084 66.8079 34.3466 68.1449C35.6849 69.4819 37.4029 70.3737 39.2664 70.6984C41.1301 71.0234 43.0484 70.7654 44.7601 69.9602C46.4719 69.1547 47.8934 67.8412 48.8311 66.1982C49.7689 64.5552 50.1771 62.6632 50.0001 60.7797L50.0476 60.8247C49.9146 59.2502 50.1269 57.6654 50.6696 56.1812C51.2124 54.6972 52.0726 53.3494 53.1899 52.2319C54.3074 51.1147 55.6551 50.2544 57.1391 49.7119C58.6234 49.1692 60.2079 48.9567 61.7826 49.0897L61.7351 49.0447C63.2736 49.1829 64.8224 48.9307 66.2376 48.3112C67.6526 47.6917 68.8886 46.7249 69.8306 45.5007C70.7726 44.2764 71.3906 42.8339 71.6266 41.3074C71.8629 39.7807 71.7099 38.2192 71.1819 36.7672C70.6539 35.3154 69.7679 34.0204 68.6061 33.0022C67.4444 31.9839 66.0444 31.2754 64.5359 30.9424C63.0274 30.6094 61.4591 30.6624 59.9766 31.0967C58.4941 31.5312 57.1454 32.3327 56.0551 33.4272H56.0476Z" fill="white"/>
<path d="M37.6049 46.5901L37.5574 46.5451C38.8956 46.6799 40.2471 46.5156 41.5144 46.0641C42.7814 45.6126 43.9324 44.8854 44.8839 43.9346C45.8351 42.9839 46.5636 41.8334 47.0159 40.5666C47.4684 39.2999 47.6336 37.9486 47.4999 36.6101L47.5474 36.6551C47.4144 35.0804 47.6269 33.4959 48.1694 32.0116C48.7121 30.5276 49.5724 29.1799 50.6896 28.0624C51.8071 26.9451 53.1549 26.0849 54.6389 25.5424C56.1231 24.9995 57.7076 24.7872 59.2824 24.9201L59.2349 24.8751C61.1186 25.0521 63.0109 24.6435 64.6539 23.7054C66.2972 22.7672 67.6106 21.345 68.4156 19.6329C69.2206 17.9207 69.4779 16.0019 69.1524 14.1381C68.8269 12.2743 67.9344 10.5564 66.5964 9.21854C65.2586 7.88071 63.5406 6.98811 61.6769 6.66256C59.8131 6.33699 57.8944 6.59426 56.1821 7.39931C54.4699 8.20434 53.0479 9.51796 52.1096 11.161C51.1714 12.804 50.7629 14.6964 50.9399 16.5801L50.8949 16.5326C51.0281 18.1073 50.8162 19.6922 50.2737 21.1765C49.7312 22.6608 48.8709 24.0088 47.7536 25.1264C46.6361 26.2436 45.2881 27.1039 43.8039 27.6464C42.3194 28.1889 40.7346 28.4009 39.1599 28.2676L39.2049 28.3151C37.8666 28.1804 36.5149 28.3446 35.2479 28.7961C33.9809 29.2474 32.8299 29.9749 31.8784 30.9256C30.9269 31.8764 30.1986 33.0269 29.7461 34.2936C29.2939 35.5604 29.1286 36.9116 29.2624 38.2501L29.2174 38.2051C29.3499 39.7796 29.1371 41.3641 28.5944 42.8481C28.0514 44.3319 27.1914 45.6796 26.0741 46.7969C24.9568 47.9141 23.6092 48.7741 22.1253 49.3171C20.6414 49.8599 19.0569 50.0726 17.4824 49.9401L17.5274 49.9851C15.6437 49.8081 13.7513 50.2166 12.1082 51.1549C10.4652 52.0931 9.15162 53.5151 8.3466 55.2274C7.54155 56.9396 7.28425 58.8584 7.60982 60.7221C7.9354 62.5859 8.828 64.3039 10.1658 65.6416C11.5037 66.9796 13.2216 67.8721 15.0854 68.1976C16.9492 68.5231 18.868 68.2659 20.5802 67.4609C22.2923 66.6559 23.7145 65.3424 24.6526 63.6994C25.5909 62.0561 25.9994 60.1639 25.8224 58.2801L25.8699 58.3251C25.7369 56.7504 25.9494 55.1659 26.4921 53.6816C27.0346 52.1976 27.8949 50.8499 29.0121 49.7324C30.1296 48.6151 31.4774 47.7549 32.9614 47.2124C34.4456 46.6696 36.0301 46.4571 37.6049 46.5901Z" fill="white"/>
<path d="M20.8505 41.5723C21.7981 40.6193 22.5235 39.4688 22.9751 38.2031C23.4267 36.9373 23.5933 35.5873 23.463 34.2498L23.5105 34.2948C23.3775 32.7198 23.5899 31.1346 24.1329 29.6501C24.676 28.1656 25.5365 26.8176 26.6545 25.7001C27.7725 24.5826 29.1208 23.7227 30.6055 23.1803C32.0903 22.6379 33.6755 22.4261 35.2505 22.5598L35.203 22.5148C37.086 22.6913 38.9778 22.2825 40.62 21.3444C42.2623 20.4064 43.575 18.9845 44.3798 17.2729C45.1843 15.5613 45.4413 13.6431 45.1158 11.7801C44.7903 9.917 43.8978 8.1997 42.5605 6.86235C41.2233 5.525 39.5058 4.6327 37.6428 4.30715C35.7798 3.98157 33.8615 4.23862 32.15 5.04317C30.4383 5.84772 29.0165 7.16065 28.0785 8.8029C27.1403 10.4451 26.7315 12.3368 26.908 14.2198L26.863 14.1748C26.996 15.7495 26.7835 17.3341 26.2408 18.8182C25.698 20.3023 24.8381 21.6501 23.7207 22.7675C22.6033 23.8849 21.2555 24.745 19.7714 25.2876C18.2873 25.8303 16.7027 26.0428 15.128 25.9098L15.173 25.9548C13.6345 25.8168 12.0859 26.0696 10.671 26.6893C9.25603 27.3091 8.0204 28.2761 7.07863 29.5006C6.13685 30.7248 5.5194 32.1673 5.28345 33.6938C5.04753 35.2206 5.20075 36.7821 5.72893 38.2336C6.2571 39.6853 7.14318 40.9801 8.305 41.9981C9.46683 43.0163 10.8668 43.7246 12.3753 44.0576C13.8837 44.3903 15.4518 44.3371 16.9342 43.9028C18.4166 43.4683 19.7654 42.6668 20.8555 41.5723H20.8505Z" fill="white"/>
<path d="M98.293 16.6367H105.718V52.7692H98.293V16.6367Z" fill="white"/>
<path d="M109.922 40.3965C109.912 37.8 110.672 35.2585 112.107 33.0945C113.542 30.9305 115.587 29.241 117.983 28.2403C120.379 27.2393 123.018 26.972 125.566 27.4723C128.114 27.9725 130.457 29.2175 132.296 31.05C134.136 32.8823 135.391 35.2195 135.901 37.7655C136.412 40.3115 136.155 42.9518 135.164 45.3518C134.172 47.7515 132.491 49.8035 130.333 51.247C128.174 52.6908 125.636 53.4615 123.04 53.4615C121.316 53.4813 119.606 53.157 118.009 52.508C116.412 51.859 114.96 50.8983 113.739 49.682C112.518 48.4655 111.551 47.0178 110.896 45.4235C110.24 43.8293 109.909 42.1203 109.922 40.3965ZM128.732 40.3965C128.701 39.2773 128.341 38.192 127.697 37.2763C127.052 36.3608 126.152 35.6553 125.109 35.2485C124.066 34.8415 122.926 34.751 121.832 34.9885C120.738 35.226 119.738 35.7805 118.957 36.5833C118.176 37.3858 117.649 38.4008 117.443 39.5013C117.236 40.6015 117.357 41.7385 117.793 42.77C118.229 43.8015 118.959 44.6815 119.892 45.3003C120.825 45.919 121.92 46.249 123.04 46.249C123.806 46.2695 124.569 46.1308 125.28 45.8418C125.99 45.5528 126.633 45.1198 127.168 44.57C127.703 44.02 128.118 43.3653 128.387 42.647C128.656 41.9288 128.774 41.1625 128.732 40.3965Z" fill="white"/>
<path d="M165.749 28.022V51.522C165.749 59.837 159.264 63.352 152.682 63.352C150.364 63.5255 148.044 63.0573 145.974 61.999C143.905 60.9405 142.168 59.3328 140.952 57.352L147.287 53.6895C147.798 54.722 148.612 55.5738 149.62 56.131C150.629 56.688 151.783 56.924 152.929 56.807C153.662 56.9085 154.408 56.844 155.112 56.6183C155.816 56.3925 156.461 56.0113 156.998 55.503C157.535 54.9945 157.95 54.372 158.214 53.681C158.478 52.9903 158.583 52.249 158.522 51.512V49.2495C157.652 50.3133 156.546 51.1585 155.291 51.7173C154.035 52.276 152.667 52.5328 151.294 52.467C148.029 52.364 144.932 50.9945 142.658 48.648C140.385 46.3018 139.113 43.1628 139.113 39.8958C139.113 36.6288 140.385 33.4898 142.658 31.1435C144.932 28.797 148.029 27.4275 151.294 27.3245C152.667 27.2588 154.035 27.5155 155.291 28.0743C156.546 28.633 157.652 29.4783 158.522 30.542V28.017L165.749 28.022ZM158.524 39.8995C158.574 38.703 158.265 37.5188 157.636 36.4995C157.007 35.48 156.088 34.6723 154.996 34.18C153.904 33.6875 152.69 33.5333 151.51 33.7368C150.33 33.9403 149.238 34.4923 148.374 35.322C147.51 36.1515 146.914 37.2205 146.663 38.3915C146.412 39.5625 146.517 40.782 146.965 41.8928C147.413 43.0035 148.183 43.955 149.176 44.6245C150.169 45.294 151.339 45.651 152.537 45.6495C153.317 45.704 154.1 45.5945 154.835 45.328C155.57 45.0615 156.242 44.6438 156.806 44.1023C157.37 43.5605 157.814 42.9068 158.11 42.1828C158.406 41.459 158.547 40.6813 158.524 39.8995Z" fill="white"/>
<path d="M169.955 40.3965C169.945 37.8 170.705 35.2585 172.141 33.0945C173.576 30.9305 175.621 29.241 178.017 28.2403C180.413 27.2393 183.052 26.972 185.6 27.4723C188.148 27.9725 190.49 29.2175 192.33 31.05C194.169 32.8823 195.424 35.2195 195.934 37.7655C196.445 40.3115 196.188 42.9518 195.197 45.3518C194.206 47.7515 192.524 49.8035 190.366 51.247C188.208 52.6908 185.67 53.4615 183.073 53.4615C181.349 53.4813 179.639 53.157 178.042 52.508C176.445 51.859 174.994 50.8983 173.772 49.682C172.551 48.4655 171.584 47.0178 170.929 45.4235C170.274 43.8293 169.943 42.1203 169.955 40.3965ZM188.765 40.3965C188.734 39.2773 188.374 38.192 187.73 37.2763C187.085 36.3608 186.185 35.6553 185.142 35.2485C184.099 34.8415 182.959 34.751 181.865 34.9885C180.771 35.226 179.771 35.7805 178.99 36.5833C178.21 37.3858 177.683 38.4008 177.476 39.5013C177.269 40.6015 177.391 41.7385 177.826 42.77C178.262 43.8015 178.992 44.6815 179.925 45.3003C180.858 45.919 181.953 46.249 183.073 46.249C183.84 46.2695 184.602 46.1308 185.313 45.8418C186.024 45.5528 186.667 45.1198 187.201 44.57C187.736 44.02 188.151 43.3653 188.42 42.647C188.69 41.9288 188.807 41.1625 188.765 40.3965Z" fill="white"/>
<path d="M199.652 21.3906C199.652 20.5094 199.914 19.6481 200.403 18.9155C200.893 18.1829 201.589 17.6119 202.403 17.2747C203.217 16.9375 204.112 16.8493 204.977 17.0212C205.841 17.1931 206.635 17.6174 207.258 18.2404C207.881 18.8634 208.305 19.6572 208.477 20.5214C208.649 21.3856 208.56 22.2814 208.223 23.0954C207.886 23.9095 207.315 24.6052 206.582 25.0948C205.85 25.5843 204.989 25.8456 204.107 25.8456C202.93 25.8338 201.803 25.3608 200.97 24.5278C200.137 23.6948 199.664 22.5685 199.652 21.3906ZM200.402 28.0231H207.83V52.773H200.392L200.402 28.0231Z" fill="white"/>
<path d="M239.889 40.3977C239.975 42.0334 239.737 43.6699 239.188 45.2132C238.639 46.7564 237.79 48.1759 236.691 49.3902C235.592 50.6042 234.263 51.5892 232.782 52.2882C231.3 52.9869 229.695 53.3862 228.059 53.4627C226.683 53.5377 225.308 53.3057 224.033 52.7834C222.757 52.2609 221.615 51.4614 220.687 50.4427V62.6702H213.262V28.0227H220.687V30.3477C221.615 29.3297 222.758 28.5307 224.033 28.0089C225.308 27.4869 226.683 27.2552 228.059 27.3302C229.696 27.4064 231.301 27.8054 232.783 28.5044C234.264 29.2034 235.593 30.1884 236.693 31.4029C237.792 32.6174 238.641 34.0374 239.189 35.5812C239.738 37.1247 239.976 38.7617 239.889 40.3977ZM232.464 40.3977C232.435 39.2394 232.065 38.1154 231.4 37.1662C230.736 36.2172 229.806 35.4852 228.727 35.0622C227.649 34.6389 226.469 34.5432 225.336 34.7872C224.204 35.0309 223.168 35.6034 222.359 36.4329C221.55 37.2627 221.004 38.3122 220.789 39.4509C220.573 40.5894 220.699 41.7659 221.149 42.8337C221.599 43.9014 222.354 44.8124 223.32 45.4532C224.285 46.0937 225.418 46.4354 226.577 46.4352C227.372 46.4707 228.166 46.3374 228.907 46.0444C229.647 45.7517 230.317 45.3054 230.873 44.7354C231.429 44.1652 231.858 43.4842 232.132 42.7367C232.406 41.9892 232.52 41.1919 232.464 40.3977Z" fill="white"/>
<path d="M262.802 45.3446C262.802 51.0371 257.855 53.4621 252.51 53.4621C250.35 53.6576 248.181 53.2011 246.284 52.1509C244.387 51.1009 242.848 49.5059 241.867 47.5721L248.3 43.9096C248.56 44.8034 249.119 45.5811 249.883 46.1124C250.647 46.6439 251.572 46.8971 252.5 46.8296C254.28 46.8296 255.172 46.2846 255.172 45.2971C255.172 42.5721 242.995 44.0096 242.995 35.4471C242.995 30.0496 247.55 27.3296 252.697 27.3296C254.632 27.2684 256.547 27.7274 258.245 28.6586C259.942 29.5901 261.36 30.9596 262.347 32.6246L256.012 36.0396C255.735 35.3914 255.272 34.8391 254.682 34.4519C254.092 34.0646 253.402 33.8596 252.697 33.8621C251.41 33.8621 250.617 34.3621 250.617 35.2471C250.627 38.0696 262.802 36.1871 262.802 45.3446Z" fill="white"/>
<path d="M289.926 28.0234V52.7734H282.501V50.4459C281.643 51.4729 280.556 52.2822 279.326 52.8072C278.096 53.3322 276.761 53.5579 275.426 53.4659C270.426 53.4659 266.176 49.9034 266.176 43.2159V28.0234H273.601V42.1284C273.538 42.7179 273.606 43.3139 273.798 43.8747C273.988 44.4357 274.301 44.9482 274.711 45.3764C275.121 45.8047 275.618 46.1384 276.171 46.3547C276.721 46.5709 277.313 46.6644 277.906 46.6284C280.628 46.6284 282.508 45.0459 282.508 41.5309V28.0309L289.926 28.0234Z" fill="white"/>
<path d="M332.499 37.5748V52.7698H325.074V38.2173C325.074 35.7423 323.887 34.1598 321.512 34.1598C319.037 34.1598 317.649 35.8923 317.649 38.8123V52.7698H310.227V38.2173C310.227 35.7423 309.039 34.1598 306.662 34.1598C304.187 34.1598 302.802 35.8923 302.802 38.8123V52.7698H295.377V28.0198H302.802V30.2948C303.572 29.2856 304.582 28.4851 305.739 27.9668C306.899 27.4483 308.169 27.2286 309.434 27.3273C310.704 27.2651 311.969 27.5333 313.107 28.1056C314.242 28.6776 315.209 29.5346 315.917 30.5923C316.739 29.4856 317.829 28.6056 319.084 28.0346C320.339 27.4636 321.719 27.2203 323.094 27.3273C328.777 27.3298 332.499 31.3873 332.499 37.5748Z" fill="white"/>
<path d="M338.78 27.8696C341.822 27.8696 344.29 25.4026 344.29 22.3596C344.29 19.3165 341.822 16.8496 338.78 16.8496C335.737 16.8496 333.27 19.3165 333.27 22.3596C333.27 25.4026 335.737 27.8696 338.78 27.8696Z" fill="white"/>
</svg>
